<?xml version="1.0" encoding="iso-8859-1"?>
<!-- Uploaded to: SVG Repo, www.svgrepo.com, Generator: SVG Repo Mixer Tools -->
<!DOCTYPE svg PUBLIC "-//W3C//DTD SVG 1.1//EN" "http://www.w3.org/Graphics/SVG/1.1/DTD/svg11.dtd">
<svg fill="#000000" version="1.1" id="Capa_1" xmlns="http://www.w3.org/2000/svg" xmlns:xlink="http://www.w3.org/1999/xlink" 
	 width="800px" height="800px" viewBox="0 0 492.747 492.747"
	 xml:space="preserve">
<g>
	<g>
		<polygon points="216.311,318.533 246.734,336.85 276.764,318.327 246.741,302.528 		"/>
		<polygon points="207.698,313.337 213.668,278.487 146.809,225.69 136.071,270.188 		"/>
		<path d="M202.817,185.422l-7.995,23.955L153.1,219.907l33.274,25.478l39.89-5.812l20.477-41.412l20.469,41.425l39.896,5.799
			l33.253-25.478l-41.729-10.529c0,0-28.386-88.873-43.033-88.873c-17.627,0-29.282,0-39.935,0c-16.068,0-11.643,19.127-35.6,19.127
			c-23.949,0-28.282,28.788-28.282,28.788s8.992,0,31.938,0C206.694,168.419,202.817,185.422,202.817,185.422z M214.488,134.815
			c2.862,0,5.166,2.304,5.166,5.151c0,2.844-2.304,5.162-5.166,5.162c-2.843,0-5.154-2.318-5.154-5.162
			C209.334,137.12,211.659,134.815,214.488,134.815z"/>
		<polygon points="285.697,312.807 357.411,268.553 346.703,225.675 279.82,278.487 		"/>
		<path d="M353.893,221.056l10.187,43.454h79.442c32.591,0,49.226-43.454,49.226-43.454H353.893z"/>
		<path d="M295.502,318.83h96.414c32.592,0,57.035-43.456,57.035-43.456h-86.57L295.502,318.83z"/>
		<path d="M246.373,350.621l-33.604-21.835H98.794c0,0,33.609,43.457,66.198,43.457h48.105h66.551h48.103
			c32.595,0,66.203-43.457,66.203-43.457H279.977L246.373,350.621z"/>
		<path d="M128.668,264.509l10.185-43.454H0c0,0,16.635,43.454,49.229,43.454H128.668z"/>
		<path d="M197.244,318.83l-66.878-43.456H43.795c0,0,24.443,43.456,57.035,43.456H197.244z"/>
	</g>
</g>
</svg>